<?xml version="1.0" encoding="utf-8"?>
<!-- Generator: Adobe Illustrator 19.2.1, SVG Export Plug-In . SVG Version: 6.00 Build 0)  -->
<svg version="1.1" id="Layer_1" xmlns="http://www.w3.org/2000/svg" xmlns:xlink="http://www.w3.org/1999/xlink" x="0px" y="0px"
	 viewBox="0 0 100 100" style="enable-background:new 0 0 100 100;" xml:space="preserve">
<style type="text/css">
	.st0{fill:#1590FF;}
</style>
<g id="Forma_1_2_">
	<g>
		<path class="st0" d="M83.6,37.5h-2.1V27.2c0-0.1,0-0.1,0-0.2c0-0.4-0.1-0.8-0.4-1.1L64,6.5c0,0,0,0,0,0c-0.1-0.1-0.2-0.2-0.3-0.3
			c0,0-0.1,0-0.1-0.1C63.4,6.1,63.3,6,63.2,6c0,0-0.1,0-0.1,0c-0.1,0-0.3,0-0.4,0H20.9c-1.9,0-3.5,1.6-3.5,3.5v28.1h-2.1
			c-2.7,0-4.9,2.2-4.9,4.9v25.7c0,2.7,2.2,4.9,4.9,4.9h2.1v17.6c0,1.9,1.6,3.5,3.5,3.5H78c1.9,0,3.5-1.6,3.5-3.5V73.1h2.1
			c2.7,0,4.9-2.2,4.9-4.9V42.4C88.5,39.7,86.3,37.5,83.6,37.5z M20.9,9.3H61v17.7c0,1,0.8,1.7,1.7,1.7H78v8.7H20.9V9.3z M64.5,60
			c1.3,0,2.7-0.3,3.5-0.6l0.6,3.3c-0.8,0.4-2.5,0.8-4.7,0.8c-6.4,0-9.7-4-9.7-9.3c0-6.3,4.5-9.8,10.1-9.8c2.2,0,3.8,0.4,4.6,0.8
			L68,48.5c-0.9-0.4-2-0.7-3.5-0.7c-3.3,0-5.9,2-5.9,6.1C58.6,57.6,60.7,60,64.5,60z M52.3,53.7c0,6.1-3.7,9.7-9.1,9.7
			c-5.5,0-8.7-4.1-8.7-9.4c0-5.5,3.5-9.7,9-9.7C49.2,44.3,52.3,48.6,52.3,53.7z M16.2,63.1V44.9c1.5-0.2,3.5-0.4,5.7-0.4
			c3.5,0,5.8,0.6,7.6,2c1.9,1.4,3.1,3.7,3.1,7c0,3.5-1.3,6-3.1,7.5c-1.9,1.6-4.9,2.4-8.5,2.4C18.8,63.3,17.3,63.2,16.2,63.1z
			 M78,89.7H20.9V73.1H78V89.7z M81.2,63.1l-1.7-3.3c-0.7-1.3-1.1-2.3-1.6-3.3h-0.1c-0.4,1.1-0.9,2-1.4,3.3l-1.5,3.3h-4.8l5.4-9.4
			l-5.2-9.1h4.8l1.6,3.4c0.5,1.1,1,2,1.4,3.1h0.1c0.4-1.2,0.8-2,1.3-3.1l1.6-3.4h4.8l-5.2,9l5.5,9.5H81.2z M28.1,53.6
			c0-3.8-2.2-5.9-5.8-5.9c-0.9,0-1.5,0.1-1.9,0.2V60c0.4,0.1,0.9,0.1,1.5,0.1C25.7,60.1,28.1,58,28.1,53.6z M38.9,53.9
			c0,3.6,1.7,6.2,4.5,6.2c2.8,0,4.4-2.7,4.4-6.3c0-3.3-1.6-6.2-4.5-6.2C40.5,47.7,38.9,50.3,38.9,53.9z"/>
	</g>
</g>
</svg>
