<?xml version="1.0" encoding="utf-8"?>
<!-- Generator: Adobe Illustrator 19.2.1, SVG Export Plug-In . SVG Version: 6.00 Build 0)  -->
<svg version="1.1" id="Layer_1" xmlns="http://www.w3.org/2000/svg" xmlns:xlink="http://www.w3.org/1999/xlink" x="0px" y="0px"
	 viewBox="0 0 28 23.4" style="enable-background:new 0 0 28 23.4;" xml:space="preserve">
<style type="text/css">
	.st0{fill:#FFFFFF;}
	.st1{fill:none;stroke:#FFFFFF;stroke-width:0.8882;stroke-miterlimit:10;}
</style>
<image style="overflow:visible;" width="28" height="23" xlink:href="../../Downloads/meeting.png"  transform="matrix(1 0 0 1 -40.753 53.6363)">
</image>
<g id="Shape_1">
	<g>
		<path class="st0" d="M24.3,0.9H3.7c-0.3,0-0.5,0.2-0.5,0.5v13.3c0,1.1,0.9,2,2,2h5.7l-1.7,5.2c-0.1,0.3,0.1,0.5,0.3,0.6
			c0.1,0,0.1,0,0.2,0c0.2,0,0.4-0.1,0.5-0.3l1.9-5.6h1.6V22c0,0.3,0.2,0.5,0.5,0.5c0.3,0,0.5-0.2,0.5-0.5v-5.4h1.6l1.9,5.6
			c0.1,0.2,0.3,0.3,0.5,0.3c0.1,0,0.1,0,0.2,0c0.3-0.1,0.4-0.4,0.3-0.6l-1.7-5.2h5.7c1.1,0,2-0.9,2-2V1.4
			C24.8,1.1,24.6,0.9,24.3,0.9z M23.8,14.6c0,0.5-0.4,1-1,1H5.2c-0.5,0-1-0.4-1-1V1.9h19.6V14.6z M6.6,13.7h2.9
			c0.3,0,0.5-0.2,0.5-0.5V9.2c0-0.3-0.2-0.5-0.5-0.5H6.6C6.4,8.7,6.1,9,6.1,9.2v3.9C6.1,13.4,6.4,13.7,6.6,13.7z M7.1,9.7h2v2.9h-2
			V9.7z M12.5,13.7h2.9c0.3,0,0.5-0.2,0.5-0.5V6.3c0-0.3-0.2-0.5-0.5-0.5h-2.9C12.3,5.8,12,6,12,6.3v6.9
			C12,13.4,12.3,13.7,12.5,13.7z M13,6.8h2v5.9h-2V6.8z M18.4,13.7h2.9c0.3,0,0.5-0.2,0.5-0.5V4.3c0-0.3-0.2-0.5-0.5-0.5h-2.9
			c-0.3,0-0.5,0.2-0.5,0.5v8.8C17.9,13.4,18.1,13.7,18.4,13.7z M18.9,4.8h2v7.9h-2V4.8z"/>
	</g>
	<g>
		<path class="st1" d="M24.3,0.9H3.7c-0.3,0-0.5,0.2-0.5,0.5v13.3c0,1.1,0.9,2,2,2h5.7l-1.7,5.2c-0.1,0.3,0.1,0.5,0.3,0.6
			c0.1,0,0.1,0,0.2,0c0.2,0,0.4-0.1,0.5-0.3l1.9-5.6h1.6V22c0,0.3,0.2,0.5,0.5,0.5c0.3,0,0.5-0.2,0.5-0.5v-5.4h1.6l1.9,5.6
			c0.1,0.2,0.3,0.3,0.5,0.3c0.1,0,0.1,0,0.2,0c0.3-0.1,0.4-0.4,0.3-0.6l-1.7-5.2h5.7c1.1,0,2-0.9,2-2V1.4
			C24.8,1.1,24.6,0.9,24.3,0.9z M23.8,14.6c0,0.5-0.4,1-1,1H5.2c-0.5,0-1-0.4-1-1V1.9h19.6V14.6z M6.6,13.7h2.9
			c0.3,0,0.5-0.2,0.5-0.5V9.2c0-0.3-0.2-0.5-0.5-0.5H6.6C6.4,8.7,6.1,9,6.1,9.2v3.9C6.1,13.4,6.4,13.7,6.6,13.7z M7.1,9.7h2v2.9h-2
			V9.7z M12.5,13.7h2.9c0.3,0,0.5-0.2,0.5-0.5V6.3c0-0.3-0.2-0.5-0.5-0.5h-2.9C12.3,5.8,12,6,12,6.3v6.9
			C12,13.4,12.3,13.7,12.5,13.7z M13,6.8h2v5.9h-2V6.8z M18.4,13.7h2.9c0.3,0,0.5-0.2,0.5-0.5V4.3c0-0.3-0.2-0.5-0.5-0.5h-2.9
			c-0.3,0-0.5,0.2-0.5,0.5v8.8C17.9,13.4,18.1,13.7,18.4,13.7z M18.9,4.8h2v7.9h-2V4.8z"/>
	</g>
</g>
</svg>
