<?xml version="1.0" encoding="utf-8"?>
<!-- Generator: Adobe Illustrator 19.2.1, SVG Export Plug-In . SVG Version: 6.00 Build 0)  -->
<svg version="1.1" id="Layer_1" xmlns="http://www.w3.org/2000/svg" xmlns:xlink="http://www.w3.org/1999/xlink" x="0px" y="0px"
	 viewBox="0 0 28 23.4" style="enable-background:new 0 0 28 23.4;" xml:space="preserve">
<style type="text/css">
	.st0{fill:#FFFFFF;}
</style>
<g>
	<g>
		<path class="st0" d="M18.5,7L9.5,6.9c-0.6,0-1.1,0.5-1.1,1.1c0,0.6,0.5,1.1,1.1,1.1l3.4,0l-0.1,12.2c0,0.6,0.5,1.1,1.1,1.1
			c0.6,0,1.1-0.5,1.1-1.1l0.1-12.2l3.4,0c0.7,0,1.1-0.5,1.1-1.1S19.2,7,18.5,7z"/>
		<g>
			<g>
				<path class="st0" d="M2.5,0.7c-1.2,0-2.2,1-2.2,2.2C0.3,4,1.3,5,2.5,5s2.2-1,2.2-2.2C4.7,1.7,3.7,0.7,2.5,0.7z"/>
				<path class="st0" d="M25.5,0.9c-1.2,0-2.2,1-2.2,2.2c-0.1,1.2,1,2.2,2.2,2.2s2.2-1,2.2-2.2C27.7,1.9,26.7,0.9,25.5,0.9z"/>
			</g>
			<g>
				<g>
					<path class="st0" d="M8,22.7c-0.6,0-1.2-0.5-1.2-1.2v-6.9H1.9c-0.6,0-1.2-0.5-1.2-1.2V7.9c0-0.6,0.5-1.2,1.2-1.2S3,7.3,3,7.9
						v4.5H8c0.6,0,1.2,0.5,1.2,1.2v8.1C9.1,22.2,8.6,22.7,8,22.7z"/>
				</g>
				<g>
					<path class="st0" d="M19.5,22.7c0.6,0,1.2-0.5,1.2-1.2v-6.9h4.9c0.6,0,1.2-0.5,1.2-1.2V7.9c0-0.6-0.5-1.2-1.2-1.2
						c-0.6,0-1.2,0.5-1.2,1.2v4.5h-4.9c-0.6,0-1.2,0.5-1.2,1.2v8.1C18.4,22.2,18.9,22.7,19.5,22.7z"/>
				</g>
			</g>
		</g>
	</g>
</g>
</svg>
