<?xml version="1.0" encoding="utf-8"?>
<!-- Generator: Adobe Illustrator 19.2.1, SVG Export Plug-In . SVG Version: 6.00 Build 0)  -->
<svg version="1.1" id="Layer_1" xmlns="http://www.w3.org/2000/svg" xmlns:xlink="http://www.w3.org/1999/xlink" x="0px" y="0px"
	 viewBox="0 0 28 23.4" style="enable-background:new 0 0 28 23.4;" xml:space="preserve">
<style type="text/css">
	.st0{fill:#FFFFFF;}
</style>
<image style="overflow:visible;" width="28" height="23" xlink:href="../../Downloads/meeting.png"  transform="matrix(1 0 0 1 -40.753 53.6363)">
</image>
<g>
	<g>
		<path class="st0" d="M6.2,23.1h16.8c0.1,0,0.3,0,0.4-0.1c0.1-0.1,2.7-1.3,2.7-3.9V6c0-0.5-0.4-0.8-0.8-0.8h-2.9V3.5V1.1
			c0-0.5-0.4-0.8-0.8-0.8H2.9C2.4,0.3,2,0.7,2,1.1v17.8c0,0.1,0,0.1,0,0.2C2.1,19.3,3,23.1,6.2,23.1z M3.7,2h16.8v1.5V6v11.7
			c0,0.5,0.4,0.8,0.8,0.8c0.5,0,0.8-0.4,0.8-0.8V6.9h2.1v12.2c0,1.2-1.1,2-1.6,2.3H6.2c-1.7,0-2.3-2.1-2.4-2.6L3.7,2z"/>
		<path class="st0" d="M11.8,5.6c0-0.5-0.4-0.8-0.8-0.8H7.1c-0.5,0-0.8,0.4-0.8,0.8v4.5c0,0.5,0.4,0.8,0.8,0.8H11
			c0.5,0,0.8-0.4,0.8-0.8L11.8,5.6L11.8,5.6z M7.9,6.4h2.2v2.8H7.9V6.4z"/>
		<path class="st0" d="M6.8,18.8h10.9c0.5,0,0.8-0.4,0.8-0.8s-0.4-0.8-0.8-0.8H6.8c-0.5,0-0.8,0.4-0.8,0.8S6.3,18.8,6.8,18.8z"/>
		<path class="st0" d="M6.9,14.7h10.6c0.5,0,0.8-0.4,0.8-0.8c0-0.5-0.4-0.8-0.8-0.8H6.9c-0.5,0-0.8,0.4-0.8,0.8
			C6.1,14.3,6.5,14.7,6.9,14.7z"/>
		<path class="st0" d="M14.5,6.6h3.2c0.5,0,0.8-0.4,0.8-0.8s-0.4-0.8-0.8-0.8h-3.2c-0.5,0-0.8,0.4-0.8,0.8C13.7,6.2,14,6.6,14.5,6.6
			z"/>
		<path class="st0" d="M14.5,10.6h3.2c0.5,0,0.8-0.4,0.8-0.8S18.2,9,17.7,9h-3.2c-0.5,0-0.8,0.4-0.8,0.8S14,10.6,14.5,10.6z"/>
	</g>
</g>
</svg>
