<?xml version="1.0" encoding="utf-8"?>
<!-- Generator: Adobe Illustrator 19.2.1, SVG Export Plug-In . SVG Version: 6.00 Build 0)  -->
<svg version="1.1" id="Layer_1" xmlns="http://www.w3.org/2000/svg" xmlns:xlink="http://www.w3.org/1999/xlink" x="0px" y="0px"
	 viewBox="0 0 100 100" style="enable-background:new 0 0 100 100;" xml:space="preserve">
<style type="text/css">
	.st0{fill:#E81313;}
</style>
<g id="Forma_1_2_">
	<g>
		<path class="st0" d="M31.7,51.1c0-2.4-1.7-3.8-4.6-3.8c-1.2,0-2,0.1-2.4,0.2v7.6c0.5,0.1,1.1,0.2,2,0.2
			C29.8,55.3,31.7,53.8,31.7,51.1z M49.7,47.4c-1.3,0-2.1,0.1-2.6,0.2v16.9c0.5,0.1,1.3,0.1,2,0.1c5.3,0,8.7-2.9,8.7-9.1
			C57.9,50.2,54.7,47.4,49.7,47.4z M84.3,37.5h-2.1V27.2c0-0.1,0-0.1,0-0.2c0-0.4-0.1-0.8-0.4-1.1l-17-19.4c0,0,0,0,0,0
			c-0.1-0.1-0.2-0.2-0.3-0.3c0,0-0.1,0-0.1-0.1C64.1,6,64,6,63.9,6c0,0-0.1,0-0.1,0c-0.1,0-0.3,0-0.4,0H21.6c-1.9,0-3.5,1.6-3.5,3.5
			v28.1H16c-2.7,0-4.9,2.2-4.9,4.9v25.7c0,2.7,2.2,4.9,4.9,4.9h2.1v17.6c0,1.9,1.6,3.5,3.5,3.5h57.1c1.9,0,3.5-1.6,3.5-3.5V73.1h2.1
			c2.7,0,4.9-2.2,4.9-4.9V42.4C89.2,39.7,87,37.5,84.3,37.5z M21.6,9.3h40.1v17.7c0,1,0.8,1.7,1.7,1.7h15.3v8.7H21.6V9.3z
			 M64.1,55.4c0,4.9-1.8,8.4-4.3,10.5c-2.7,2.3-6.9,3.3-11.9,3.3c-3,0-5.2-0.2-6.6-0.4V43.4c2.1-0.3,4.9-0.5,7.9-0.5
			c4.9,0,8.1,0.9,10.6,2.8C62.4,47.7,64.1,50.8,64.1,55.4z M18.9,68.9V43.4c1.8-0.3,4.3-0.5,7.9-0.5c3.6,0,6.2,0.7,7.9,2.1
			c1.6,1.3,2.8,3.5,2.8,6c0,2.5-0.8,4.7-2.4,6.1c-2,1.9-4.9,2.7-8.4,2.7c-0.8,0-1.5,0-2-0.1v9.2H18.9z M78.7,89.7H21.6V73.1h57.1
			V89.7z M83.7,47.9h-9.9v5.9H83v4.8h-9.3v10.4h-5.9V43.1h15.8V47.9z"/>
	</g>
</g>
</svg>
