<?xml version="1.0" encoding="utf-8"?>
<!-- Generator: Adobe Illustrator 19.2.1, SVG Export Plug-In . SVG Version: 6.00 Build 0)  -->
<svg version="1.1" id="Layer_1" xmlns="http://www.w3.org/2000/svg" xmlns:xlink="http://www.w3.org/1999/xlink" x="0px" y="0px"
	 viewBox="0 0 28 23.4" style="enable-background:new 0 0 28 23.4;" xml:space="preserve">
<style type="text/css">
	.st0{fill:#FFFFFF;}
</style>
<image style="overflow:visible;" width="28" height="23" xlink:href="../../Downloads/meeting.png"  transform="matrix(1 0 0 1 -40.753 53.6363)">
</image>
<g>
	<g>
		<path class="st0" d="M14,0C7.6,0,2.3,5.3,2.3,11.7S7.6,23.3,14,23.3c6.4,0,11.7-5.2,11.7-11.7S20.4,0,14,0z M14,21.4
			c-5.4,0-9.7-4.4-9.7-9.7C4.3,6.3,8.6,2,14,2c5.4,0,9.7,4.4,9.7,9.7C23.7,17.1,19.4,21.4,14,21.4z"/>
		<path class="st0" d="M19,7.2l-6.9,6.9L9,11c-0.4-0.4-1-0.4-1.4,0c-0.4,0.4-0.4,1,0,1.4l3.8,3.8c0.2,0.2,0.4,0.3,0.7,0.3
			s0.5-0.1,0.7-0.3l7.6-7.6c0.4-0.4,0.4-1,0-1.4C20,6.8,19.4,6.8,19,7.2z"/>
	</g>
</g>
</svg>
