<?xml version="1.0" encoding="utf-8"?>
<!-- Generator: Adobe Illustrator 19.2.1, SVG Export Plug-In . SVG Version: 6.00 Build 0)  -->
<svg version="1.1" id="Layer_1" xmlns="http://www.w3.org/2000/svg" xmlns:xlink="http://www.w3.org/1999/xlink" x="0px" y="0px"
	 viewBox="0 0 28 23.4" style="enable-background:new 0 0 28 23.4;" xml:space="preserve">
<style type="text/css">
	.st0{fill:#FFFFFF;}
</style>
<g>
	<g>
		<g>
			<path class="st0" d="M22.6,5.5L18,0.9c-0.1-0.1-0.3-0.2-0.5-0.2h-11C5.7,0.7,5,1.3,5,2.1v19.3c0,0.7,0.7,1.4,1.4,1.4h15.1
				c0.8,0,1.4-0.7,1.4-1.4V6.2C23,5.9,22.8,5.7,22.6,5.5z M18.2,3.2l2.3,2.3h-1.9c-0.2,0-0.4-0.1-0.4-0.4V3.2z M21.5,21.2h-15v0V2.1
				h10.2v2.9c0,1,0.9,1.8,1.8,1.8h2.9L21.5,21.2L21.5,21.2z"/>
		</g>
	</g>
	<g>
		<g>
			<path class="st0" d="M19.5,13h-6.8c-0.4,0-0.7,0.3-0.7,0.7c0,0.4,0.3,0.7,0.7,0.7h6.8c0.4,0,0.7-0.3,0.7-0.7
				C20.3,13.3,20,13,19.5,13z"/>
		</g>
	</g>
	<g>
		<g>
			<path class="st0" d="M19.5,9.6h-6.8c-0.4,0-0.7,0.3-0.7,0.7s0.3,0.7,0.7,0.7h6.8c0.4,0,0.7-0.3,0.7-0.7C20.3,9.9,20,9.6,19.5,9.6
				z"/>
		</g>
	</g>
	<g>
		<g>
			<path class="st0" d="M19.5,16.5h-6.8c-0.4,0-0.7,0.3-0.7,0.7c0,0.4,0.3,0.7,0.7,0.7h6.8c0.4,0,0.7-0.3,0.7-0.7
				C20.3,16.8,20,16.5,19.5,16.5z"/>
		</g>
	</g>
	<g>
		<g>
			<path class="st0" d="M11.2,8.4c-0.3-0.3-0.7-0.3-1,0l-1,1L9.1,9.2c-0.3-0.3-0.7-0.3-1,0c-0.3,0.3-0.3,0.7,0,1l0.7,0.7
				C8.9,11,9,11.1,9.2,11.1c0.1,0,0.4-0.1,0.5-0.2l1.5-1.5C11.5,9.1,11.5,8.7,11.2,8.4z"/>
		</g>
	</g>
	<g>
		<g>
			<path class="st0" d="M11.2,11.8c-0.3-0.3-0.7-0.3-1,0l-1,1l-0.1-0.1c-0.3-0.3-0.7-0.3-1,0c-0.3,0.3-0.3,0.7,0,1l0.7,0.7
				c0.1,0.1,0.3,0.2,0.5,0.2c0.1,0,0.4-0.1,0.5-0.2l1.5-1.5C11.5,12.5,11.5,12.1,11.2,11.8z"/>
		</g>
	</g>
	<g>
		<g>
			<path class="st0" d="M11.2,15.1c-0.3-0.3-0.7-0.3-1,0l-1,1L9.1,16c-0.3-0.3-0.7-0.3-1,0c-0.3,0.3-0.3,0.7,0,1l0.7,0.7
				c0.1,0.1,0.3,0.2,0.5,0.2c0.1,0,0.4-0.1,0.5-0.2l1.5-1.5C11.5,15.9,11.5,15.4,11.2,15.1z"/>
		</g>
	</g>
</g>
</svg>
