<?xml version="1.0" encoding="utf-8"?>
<!-- Generator: Adobe Illustrator 19.2.1, SVG Export Plug-In . SVG Version: 6.00 Build 0)  -->
<svg version="1.1" id="Layer_1" xmlns="http://www.w3.org/2000/svg" xmlns:xlink="http://www.w3.org/1999/xlink" x="0px" y="0px"
	 viewBox="0 0 28 23.4" style="enable-background:new 0 0 28 23.4;" xml:space="preserve">
<style type="text/css">
	.st0{fill:#FFFFFF;}
</style>
<g>
	<path class="st0" d="M24.9,1.3h-4.2H7.2H2.9c-1.4,0-2.5,1.1-2.5,2.5v15.8c0,1.4,1.1,2.5,2.5,2.5h22c1.3,0,2.5-1.1,2.5-2.4V3.8
		C27.4,2.4,26.3,1.3,24.9,1.3z M2.2,3.8c0-0.4,0.4-0.7,0.7-0.7h4.3h13.4h4.3c0.4,0,0.7,0.4,0.7,0.7v15.9c0,0.4-0.4,0.7-0.7,0.7h-22
		c-0.4,0-0.7-0.4-0.7-0.7V3.8z"/>
	<path class="st0" d="M5.1,18.2h9.2c0.6,0,0.8-0.4,0.9-0.8l0-1.1c0-0.8-0.5-1.5-1.2-1.9l-1.6-1c0.5-0.6,0.8-1.3,0.8-2.1l0.1-2.1
		c0-1.8-1.5-3.3-3.4-3.3H9.5c-1.9,0-3.4,1.5-3.4,3.4l0.1,2.1c0,0.8,0.3,1.6,0.8,2.1l-1.5,1c-0.8,0.3-1.3,1-1.3,1.9v1
		C4.2,17.8,4.6,18.2,5.1,18.2z M6,16.3c0-0.1,0.1-0.3,0.4-0.4l2.6-1.6L9,14.2c0.2-0.2,0.3-0.5,0.3-0.7c0-0.3-0.2-0.5-0.3-0.6
		l-0.1-0.1c-0.6-0.3-1-0.9-1-1.5L7.9,9.2c0-1,0.7-1.6,1.6-1.6h0.6c0.9,0,1.6,0.7,1.6,1.5l-0.1,2.1c0,0.6-0.3,1.1-0.9,1.5
		c-0.3,0.1-0.5,0.5-0.5,0.7c0,0.4,0.2,0.6,0.3,0.7l2.7,1.7l0.1,0c0.1,0,0.2,0.2,0.2,0.4v0.2H6V16.3z"/>
	<path class="st0" d="M17.9,9.4h4.8c0.5,0,0.9-0.4,0.9-0.9c0-0.5-0.4-0.9-0.9-0.9h-4.8C17.4,7.6,17,8,17,8.5S17.4,9.4,17.9,9.4z"/>
	<path class="st0" d="M17.9,12.9h4.8c0.5,0,0.9-0.4,0.9-0.9c0-0.5-0.4-0.9-0.9-0.9h-4.8c-0.5,0-0.9,0.4-0.9,0.9S17.4,12.9,17.9,12.9
		z"/>
	<path class="st0" d="M17.9,16.4h4.8c0.5,0,0.9-0.4,0.9-0.9c0-0.5-0.4-0.9-0.9-0.9h-4.8c-0.5,0-0.9,0.4-0.9,0.9S17.5,16.4,17.9,16.4
		z"/>
</g>
</svg>
